<?xml version="1.0" encoding="UTF-8"?>
<svg xmlns="http://www.w3.org/2000/svg" xmlns:xlink="http://www.w3.org/1999/xlink" version="1.1" id="Layer_1" x="0px" y="0px" width="278.069px" height="126.165px" viewBox="0 0 278.069 126.165" xml:space="preserve"> <g> <path fill="#FFFFFF" d="M60.495,16.15l0.23,8.417c-5.531-6.164-13.787-8.051-21.835-7.829c-22.225,0.609-34.8,19.947-34.239,40.444 C5.227,78.159,18.73,98.459,41.437,97.839c8.029-0.219,16.451-3.922,21.016-10.199l0.193,7.096l21.767-0.594l-2.151-78.587 L60.495,16.15z M43.621,78.248c-11.343,0.31-18.589-10.853-18.874-21.266c-0.284-10.403,6.344-21.791,17.687-22.101 c11.357-0.31,18.833,10.826,19.117,21.232C61.836,66.519,54.978,77.939,43.621,78.248"></path> <path fill="#FFFFFF" d="M98.222,58.603c1.384,8.038,10.08,10.738,18.332,10.35c14.122-0.659,20.973-4.494,20.809-10.614 c-0.37-13.488-53.383-1.77-54.015-24.837c-0.35-12.806,14.1-18.51,31.969-19c13.365-0.367,32.593,3.167,34.258,16.262 l-13.619,0.373c-2.054-6.275-10.064-8.132-19.708-7.867c-11.317,0.31-20.491,3.083-20.346,8.393 c0.111,4.029,5.399,6.424,15.081,7.774l21.432,2.992c12.147,1.754,18.044,6.088,18.28,14.737 c0.339,12.341-8.601,21.248-34.118,21.945c-20.319,0.558-31.613-6.643-32.872-20.109L98.222,58.603z"></path> <path fill="#FFFFFF" d="M179.036,51.153c-0.105-3.829-0.468-9.584-0.769-13.593l8.548-0.237c0.261,1.904,0.572,5.927,0.652,8.834 c4.962-5.969,12.921-9.396,21.868-9.641c15.081-0.413,28.445,9.98,28.895,26.361c0.45,16.385-12.328,27.505-27.409,27.918 c-8.036,0.219-15.931-1.481-22.349-7.938l1.013,37.056l-8.559,0.233L179.036,51.153z M208.418,84.013 c11.775-0.321,19.701-8.086,19.351-20.848c-0.35-12.766-8.689-20.079-20.464-19.758c-11.655,0.319-19.694,8.082-19.343,20.848 C188.312,77.018,196.763,84.332,208.418,84.013"></path> <path fill="#FFFFFF" d="M233.477,11.411l5.353,52.987l19.815-0.54l1.725-53.184L233.477,11.411z M237.553,71.53l0.504,18.403 l22.733-0.62l-0.504-18.406L237.553,71.53z"></path> <path fill="#FFFFFF" d="M166.206,13.252l-9.771,0.267l-9.362,78.903l8.029-0.219l2.258-20.262l11.31-0.23l3.231,20.031l7.964-0.216 L166.206,13.252z M161.628,24.554l6.017,39.496l-9.677,0.265L161.628,24.554z"></path> <path fill="#FFFFFF" d="M273.696,83.849c0.04,1.397-0.426,2.613-1.396,3.644c-0.966,1.027-2.146,1.562-3.539,1.599 c-1.401,0.037-2.617-0.43-3.644-1.403c-1.027-0.977-1.559-2.167-1.599-3.568c-0.037-1.401,0.43-2.617,1.399-3.644 c0.969-1.027,2.16-1.559,3.579-1.599c1.394-0.037,2.599,0.43,3.615,1.403C273.131,81.253,273.659,82.44,273.696,83.849 M272.785,83.867c-0.035-1.172-0.47-2.166-1.309-2.986c-0.836-0.823-1.827-1.215-2.963-1.184c-1.165,0.031-2.141,0.477-2.939,1.339 c-0.794,0.861-1.175,1.882-1.144,3.058c0.035,1.187,0.47,2.188,1.313,3.004c0.843,0.816,1.842,1.208,2.989,1.177 c1.14-0.031,2.108-0.478,2.906-1.339C272.434,86.078,272.816,85.054,272.785,83.867 M271.249,86.853l-1.318,0.037l-1.024-2.348 l-1.405,0.037l0.066,2.374l-1.256,0.034l-0.163-5.877l2.73-0.074c0.744-0.02,1.305,0.126,1.68,0.444 c0.375,0.315,0.568,0.726,0.582,1.242c0.02,0.73-0.329,1.257-1.046,1.578L271.249,86.853z M267.477,83.646l1.292-0.034 c0.73-0.02,1.091-0.311,1.073-0.87c-0.014-0.537-0.357-0.794-1.025-0.777l-1.387,0.037L267.477,83.646z"></path> </g> </svg>
