<svg id="Layer_1" data-name="Layer 1" xmlns="http://www.w3.org/2000/svg" viewBox="0 0 1315.34 155.03"><title>ArtsCouncil_NewLogo_Long</title><path d="M762.82,0V155H377.94V0ZM501.41,13.14V140.9h24.33V86.46c4.93.39,9.53.29,13.9,1.21,5.09,1.08,7.34,4.78,7.55,12.6.27,10.15,0,20.32.13,30.49a33.62,33.62,0,0,0,1.49,8.2,3.35,3.35,0,0,0,2.37,2c7.53.15,15.07.09,21.76.09-.64-7.33-1.49-14.43-1.81-21.55-.31-6.8,0-13.63-.07-20.45,0-10.6-3.48-19.14-14.2-23,6.23-3.35,10.89-7.55,12.88-14.66,2.29-8.19,1.61-16.47,1.1-24.6C570.24,27.36,565,20,555.9,16.47A45.82,45.82,0,0,0,541,13.28C527.93,12.85,514.79,13.14,501.41,13.14ZM491.08,141.08C483,98.18,474.9,55.74,466.86,13.37H434.48L410.24,141.08c7.13,0,13.8,0,20.48,0,2.26,0,2.44-1.5,2.72-3.1.71-4.18,1.43-8.37,2.19-12.54.52-2.87.2-7,1.93-8.24,2.05-1.51,5.9-.64,9-.67,5.52-.06,11,0,16.39,0,1.15,7.8,2.16,15,3.38,22.23a3.35,3.35,0,0,0,2.26,2.22C475.84,141.15,483.13,141.08,491.08,141.08Zm167.44-37.8c.38,5.19.42,10,1.14,14.7,1.16,7.51,4,14.19,10.65,18.72,12,8.18,25.12,7.21,38.11,4.28,10.75-2.42,17.7-9.89,19.87-20.8,1-4.88.32-10.09.49-15.15.19-5.57-1.92-10.38-4.62-15.09-6.55-11.42-17.83-17.88-27.32-26.21-5.33-4.68-10.93-9.16-12.5-16.66-1.76-8.44-.06-15.6,8.78-16.46,6.78-.66,11.71,1.72,12.58,8.32.45,3.48.76,7,1.13,10.35h21.94c0-3.76.27-7.25,0-10.69-1-10.21-5.3-18.39-14.77-23.2-9.15-4.65-18.81-4.13-28.66-3.1-13.16,1.38-23.66,12.84-25.25,24.5C657.81,53,664.1,65.1,675.49,75.36c7.43,6.7,15.47,12.73,22.88,19.46,6.34,5.75,7.63,13.58,6.35,21.6a9.55,9.55,0,0,1-5,6.21c-8.52,3.54-17.81,1.29-17.83-10.43,0-2.93,0-5.87,0-8.92Zm-53.8-70.81V140.89h23.66V32.38H652.6V13.32H580.22V32.47Z"/><path d="M87.18,12.59h23l10.38,97.63.84,0q5.51-48.75,11-97.66h26.06q5.55,49.25,11.08,98.26l.69.07q5.22-49.09,10.47-98.33h20.61q-7.68,65-15.35,129.86H156.24q-5.36-43.29-10.7-86.51l-.63,0c-3.55,28.72-7.11,57.45-10.69,86.41H102.5C97.4,99.09,92.31,56,87.18,12.59Z"/><path d="M74.22,142.57c-7.61,0-14.91-.1-22.21.05-2.69.06-2.55-2-3-3.43Q39.94,109.37,31,79.5q-4.07-13.5-8.16-27A5,5,0,0,0,21,49.62v92.77H0V12.4c9.4,0,18.78-.09,28.15.15.88,0,2.12,2,2.51,3.35,6.87,22.74,13.63,45.51,20.43,68.27a14.35,14.35,0,0,0,2.15,4.76V12.59h21Z"/><path d="M1089.43,12.48h21V142.56c-7.59,0-15.22.09-22.84-.15-.81,0-1.91-1.93-2.29-3.15q-8.36-27.31-16.55-54.71l-9.66-32a5.48,5.48,0,0,0-1.75-2.95v92.72h-21.06v-130h20.23c9.44,0,9.42,0,12.13,9.1q9.66,32.37,19.33,64.73a6.12,6.12,0,0,0,1.45,2.71Z"/><path d="M860.44,77.09V44c0-20.62,10.84-32.41,31.46-33.64a63.81,63.81,0,0,1,16.94,1.25C923.45,14.73,932.23,25,932.45,40q.54,37.52,0,75.05c-.24,15.52-9.89,26.46-25.43,28.7a69.75,69.75,0,0,1-22.43-.4c-15.35-2.87-23.84-13.78-24.08-29.44-.19-12.26,0-24.52,0-36.79Zm48.33.28c0-12.27.12-24.54,0-36.81-.11-7.84-4.43-11.8-12.22-11.8s-12.14,4-12.18,11.84q-.2,36.81,0,73.62c0,8,4.44,12,12.42,12,7.71-.06,11.91-4.08,12-12C908.88,101.91,908.77,89.64,908.77,77.37Z"/><path d="M948.58,12.57H972v97.51c0,1.24,0,2.48,0,3.71.22,10.46,9,15.74,18.4,11.15,3.49-1.7,4.92-4.76,5.34-8.37a53.43,53.43,0,0,0,.17-5.94q0-46.68,0-93.34V12.64h22.68c.08.85.25,1.79.25,2.73q0,48.9,0,97.8c0,6.68-1.45,13-5.22,18.69a25.91,25.91,0,0,1-19,11.74c-7.29.84-14.93,1.19-22.1,0-15-2.58-23.94-12.89-24.12-28.16-.38-34-.13-67.92-.12-101.88A4.21,4.21,0,0,1,948.58,12.57Z"/><path d="M281.56,56H259.35c0-5.2.08-10.24,0-15.28-.14-8.06-4.4-12.14-12.33-12-7,.15-11.32,4-11.36,11q-.21,37.74,0,75.48c0,7.14,4.42,10.9,11.79,10.91s11.55-3.73,11.87-10.86c.15-3.46.05-6.94.06-10.41V94.38h22.85c-.45,9.39-.09,18.74-1.56,27.79-1.81,11.17-9.45,18-20.25,20.93a50.74,50.74,0,0,1-25.38.42c-14.39-3.39-22.94-13.22-23.13-27.93q-.51-38.1,0-76.22c.2-15.06,9.27-25.2,24.2-28.22a52.51,52.51,0,0,1,23.23.44c12.77,3.16,20.76,11.77,22.11,24.83C282.1,42.78,281.56,49.26,281.56,56Z"/><path d="M824.73,94.34H847.2c-.66,11.13,1.84,22.44-2.77,33.25-3.51,8.22-10,13.11-18.41,15.44a51.34,51.34,0,0,1-27.55.05c-13-3.56-21.06-13.61-21.22-27.61q-.45-37.92,0-75.85c.19-15.57,10.1-26.28,25.44-28.71a53.8,53.8,0,0,1,22.49.79c11.75,3.13,19.42,10.46,21.2,22.66,1,7,.76,14.25,1.09,21.62H825.05a24.76,24.76,0,0,1-.3-2.7c0-4.09,0-8.18,0-12.27-.17-10.18-9.06-15.5-18.2-10.9-4.34,2.18-5.54,6.13-5.56,10.55-.06,12.89,0,25.78,0,38.67V99.79c0,22.65,1.72,26.44,12,26.4,10.11,0,11.8-3.81,11.8-26.22Z"/><path d="M1196.46,56h-22.11c0-5.22.08-10.27,0-15.31-.15-8-4.45-12.11-12.4-11.92-7,.17-11.26,4.05-11.29,11.1q-.21,37.74,0,75.48c0,7.11,4.47,10.85,11.86,10.84s11.59-3.77,11.79-10.93c.19-6.9,0-13.81,0-20.89h22.09c0,8.46.78,16.81-.17,25-1.53,13.09-9.51,21.08-22.36,24.12a52.19,52.19,0,0,1-25.39-.27c-13.2-3.43-21.45-13.55-21.62-27.67-.3-25.4-.34-50.82,0-76.22.21-15,9.34-25.19,24.26-28.17a52.34,52.34,0,0,1,22.86.4c12.85,3.15,20.6,11.08,22.28,24.23C1197.15,42.31,1196.46,49.06,1196.46,56Z"/><path d="M314.54,31H289.82V12.64H363V30.89h-24.6V142.27H314.54Z"/><path d="M1252.74,12.56h23.41V123.87h39.19V142.3h-62.6Z"/><path d="M1234.36,142.4H1211V12.69h23.35Z"/><path d="M525.82,67.44V32.5c4.4,0,8.73-.35,13,.09,5.49.56,8.28,4.77,8.41,12.51a131.81,131.81,0,0,1-.74,14.32c-.42,4.31-4.41,7.68-9.15,8-2.1.14-4.21,0-6.31,0Z"/><path d="M459.7,98.5H439.89c3.2-19.83,6.37-39.4,9.53-59l.64-.11C453.26,59,456.46,78.63,459.7,98.5Z"/></svg>