<?xml version="1.0" encoding="UTF-8"?>
<svg width="235px" height="28px" viewBox="0 0 235 28" version="1.1" xmlns="http://www.w3.org/2000/svg" xmlns:xlink="http://www.w3.org/1999/xlink">
    <!-- Generator: Sketch 59.1 (86144) - https://sketch.com -->
    <title>ArtsCouncil_NewLogo_Long (1)@2x</title>
    <desc>Created with Sketch.</desc>
    <g id="Page-1" stroke="none" stroke-width="1" fill="none" fill-rule="evenodd">
        <g id="Home" transform="translate(-100.000000, -70.000000)" fill="#FFFFFF" fill-rule="nonzero">
            <g id="ArtsCouncil_NewLogo_Long-(1)" transform="translate(100.000000, 70.000000)">
                <path d="M136,0 L136,28 L67,28 L67,0 L136,0 Z M89.1352889,2.37367751 L89.1352889,25.4529042 L93.49709,25.4529042 L93.49709,15.6185813 C94.3809239,15.6890329 95.2055965,15.6709684 95.9890355,15.8371619 C96.9015537,16.0322587 97.3049262,16.7006458 97.3425743,18.113291 C97.390979,19.9468395 97.3425743,21.7840009 97.3658803,23.6211622 C97.3936039,24.1241783 97.4833339,24.621764 97.6330025,25.1024526 C97.7074555,25.2856628 97.8661364,25.4205928 98.0578882,25.4637429 C99.4078414,25.4908397 100.759587,25.480001 101.958948,25.480001 C101.844211,24.1558719 101.691826,22.8732912 101.634457,21.5870976 C101.578882,20.3587105 101.634457,19.124904 101.621908,17.8929039 C101.621908,15.9780652 100.998025,14.4353554 99.0761796,13.7380651 C100.193073,13.1329037 101.028502,12.374194 101.385263,11.0898069 C101.795806,9.61032296 101.673898,8.11458097 101.582467,6.64593575 C101.474901,4.94245181 100.535492,3.61290337 98.904074,2.97522592 C98.0518275,2.63425587 97.1489379,2.43947707 96.2328518,2.39896784 C93.8897059,2.32129041 91.5340106,2.37367751 89.1352889,2.37367751 Z M87.283361,25.4854204 C85.8348057,17.7357426 84.3826647,10.0691617 82.9412804,2.4152259 L77.1363022,2.4152259 L72.790636,25.4854204 C74.0688786,25.4854204 75.2646539,25.4854204 76.462222,25.4854204 C76.8673872,25.4854204 76.899657,25.2144526 76.9498545,24.9254203 C77.0771409,24.1703235 77.2062201,23.4134203 77.3424704,22.6601299 C77.4356942,22.1416783 77.3783257,21.3956138 77.6884743,21.1716137 C78.0559915,20.8988395 78.7462066,21.0560008 79.3019642,21.0505815 C80.2915714,21.0397428 81.2740075,21.0505815 82.2403087,21.0505815 C82.4464768,22.4596138 82.6275462,23.760259 82.8462638,25.0663236 C82.9060955,25.2599664 83.0582155,25.4105347 83.251429,25.4673559 C84.5511848,25.4980655 85.8581116,25.4854204 87.283361,25.4854204 Z M117.301445,18.657033 C117.36957,19.5945814 117.376741,20.4634847 117.50582,21.312517 C117.713781,22.6691622 118.222927,23.8758719 119.415116,24.6941945 C121.566436,26.171872 123.918546,25.9966462 126.24735,25.4673559 C128.174574,25.0301945 129.420547,23.6807751 129.809577,21.7099363 C129.988854,20.8283879 129.866946,19.8872266 129.897423,18.973162 C129.931485,17.9669685 129.553211,17.0980652 129.069164,16.2472265 C127.894902,14.1842586 125.872662,13.0172908 124.171326,11.5125166 C123.215782,10.6670972 122.211832,9.85780684 121.930368,8.50296808 C121.614841,6.97832286 121.919611,5.68490345 123.504417,5.52954861 C124.719913,5.4103228 125.603747,5.8402583 125.759717,7.03251641 C125.840392,7.66116159 125.895968,8.29703259 125.9623,8.9021939 L129.89563,8.9021939 C129.89563,8.22296807 129.944035,7.59251643 129.89563,6.97109705 C129.716353,5.12670988 128.945464,3.6490324 127.247714,2.78012914 C125.607332,1.94012911 123.87552,2.0340646 122.109645,2.22012912 C119.750364,2.46941945 117.867959,4.53961308 117.582909,6.64593575 C117.174158,9.57419393 118.301808,11.7600005 120.343769,13.6134199 C121.675795,14.8237425 123.117179,15.9130329 124.445619,17.1287749 C125.582233,18.1674846 125.8135,19.5819363 125.584026,21.0307105 C125.461836,21.5184474 125.134461,21.9281505 124.687643,22.152517 C123.160206,22.7920009 121.494726,22.3855493 121.49114,20.2683879 C121.49114,19.7390976 121.49114,19.2080008 121.49114,18.657033 L117.301445,18.657033 Z M107.65636,5.86554862 L107.65636,25.4510978 L111.898046,25.4510978 L111.898046,5.84929056 L116.240127,5.84929056 L116.240127,2.40619364 L103.264082,2.40619364 L103.264082,5.86554862 L107.65636,5.86554862 Z" id="Shape"></path>
                <path d="M16,2.00531341 L20.0304915,2.00531341 L21.8494699,19.2969352 L21.9966705,19.2969352 C22.6403809,13.5407362 23.282923,7.77509112 23.9242969,2 L28.491019,2 C29.1394024,7.81523692 29.7866176,13.6163047 30.4326645,19.4032034 L30.5535793,19.4156014 C31.1634101,13.6192566 31.7749934,7.81405616 32.3883291,2 L36,2 C35.1027775,9.67493198 34.2061392,17.3415986 33.310085,25 L28.101989,25 C27.4758024,19.8884953 26.8507842,14.7811233 26.2269342,9.67788387 L26.1165338,9.67788387 C25.4944362,14.7645926 24.8705862,19.8530725 24.2432314,24.9822886 L18.6846578,24.9822886 C17.7909402,17.3256584 16.8989749,9.69382412 16,2.00531341 Z" id="Path"></path>
                <path d="M12.9964978,24.9909437 C11.6639278,24.9909437 10.3856412,24.9732837 9.10735453,25 C8.63631466,25.0103697 8.66082974,24.6465737 8.58203125,24.3940356 C7.523213,20.8832273 6.47198276,17.3694756 5.42834052,13.8527805 C4.9532148,12.2633804 4.4769217,10.6739802 3.99946121,9.08458004 C3.95462995,8.88213988 3.84056297,8.70207875 3.67726293,8.57597199 L3.67726293,24.9591557 L0,24.9591557 L0,2.00291931 C1.64601293,2.00291931 3.28852371,1.9870253 4.92928341,2.02940931 C5.08337823,2.02940931 5.30051185,2.38260935 5.36880388,2.62101937 C6.57179418,6.63690379 7.75552263,10.6580862 8.94625539,14.6775026 C9.01970398,14.9785755 9.14731116,15.2634995 9.32273707,15.5181187 L9.32273707,2.03647331 L13,2.03647331 L12.9964978,24.9909437 Z" id="Path"></path>
                <path d="M194.318274,2.02825194 L198,2.02825194 L198,24.9970811 C196.669319,24.9970811 195.331625,25.0129728 193.995684,24.9705949 C193.853675,24.9705949 193.660823,24.6298059 193.594201,24.4143848 C192.617082,21.1995492 191.649899,17.9794163 190.69265,14.7539862 L188.999056,9.10359777 C188.954764,8.9013737 188.847224,8.71879524 188.692245,8.58270258 L188.692245,24.9547032 L185,24.9547032 L185,2 L188.54673,2 C190.201753,2 190.198247,2 190.673365,3.60682922 C191.802428,7.41730996 192.932075,11.2272021 194.062306,15.0365057 C194.105249,15.2151939 194.192746,15.3798935 194.316521,15.5150229 L194.318274,2.02825194 Z" id="Path"></path>
                <path d="M154.002597,13.952209 L154.002597,8.03548692 C154.002597,4.34848752 155.951848,2.24035353 159.65974,2.02042097 C160.680605,1.95960559 161.705064,2.03477432 162.705894,2.24392966 C165.333067,2.80180736 166.911888,4.63815479 166.951449,7.3202591 C167.016184,11.7928171 167.016184,16.265971 166.951449,20.739721 C166.908292,23.514805 165.173027,25.4709531 162.378621,25.8714806 C161.039091,26.0641933 159.677023,26.04004 158.345255,25.7999579 C155.585015,25.2867819 154.058342,23.335998 154.015185,20.5358811 C153.981019,18.3437078 154.015185,16.1515346 154.015185,13.9575733 L154.002597,13.952209 Z M162.693307,14.002275 C162.693307,11.8083137 162.714885,9.61435233 162.693307,7.420391 C162.673526,6.01854447 161.896703,5.31046893 160.495904,5.31046893 C159.095105,5.31046893 158.312887,6.02569675 158.305694,7.42754328 C158.281718,11.8154659 158.281718,16.2033886 158.305694,20.5913113 C158.305694,22.0217669 159.104096,22.7369947 160.539061,22.7369947 C161.925475,22.7262663 162.680719,22.0074623 162.696903,20.5913113 C162.713087,18.3901977 162.693307,16.1962363 162.693307,14.002275 L162.693307,14.002275 Z" id="Shape"></path>
                <path d="M169.071746,2 L173.381164,2 L173.381164,19.7564215 C173.381164,19.9822236 173.381164,20.2080257 173.381164,20.4320069 C173.421645,22.3367568 175.037217,23.2982367 176.766873,22.4624048 C177.409053,22.1528374 177.672181,21.5956161 177.749464,20.9382406 C177.780159,20.5785391 177.790602,20.2174258 177.780745,19.8565757 C177.780745,14.1896714 177.780745,8.52398109 177.780745,2.85950477 L177.780745,2.01274689 L181.953999,2.01274689 C181.968719,2.16753059 182,2.33870315 182,2.50987571 C182,8.44628574 182,14.3826958 182,20.3191058 C182,21.5355236 181.733191,22.6863859 181.039489,23.7225262 C180.260221,24.921143 178.975213,25.7069122 177.543377,25.8603622 C176.201974,26.0133249 174.796169,26.0770593 173.476847,25.8603622 C170.716759,25.3905481 169.071746,23.5131129 169.038625,20.7324693 C168.968703,14.5411214 169.014704,8.36434143 169.016544,2.18027748 C169.027387,2.11816776 169.045927,2.0576183 169.071746,2 Z" id="Path"></path>
                <path d="M50.8765852,10.1750456 L46.7854764,10.1750456 C46.7854764,9.24971033 46.8002125,8.35284691 46.7854764,7.45598349 C46.7596883,6.02171381 45.9749911,5.29568152 44.5142756,5.32059439 C43.2248672,5.34728675 42.429118,6.03239076 42.4217499,7.2780344 C42.3959617,11.7552335 42.3959617,16.2324327 42.4217499,20.7096318 C42.4217499,21.9801884 43.2359192,22.6492769 44.5934821,22.6510564 C45.951045,22.6528359 46.721006,21.9873063 46.7799504,20.7185293 C46.8075806,20.1028254 46.7891605,19.4835626 46.7910025,18.8660792 L46.7910025,17.0047318 L51,17.0047318 C50.9171095,18.6756737 50.9834219,20.3394977 50.7126461,21.949937 C50.3792419,23.9376284 48.9719447,25.1530207 46.9825717,25.6744115 C45.4559529,26.0815661 43.8472733,26.1072837 42.3075452,25.7491501 C39.6568898,25.1459027 38.0819695,23.3966631 38.0469713,20.779032 C37.9843429,16.2591251 37.9843429,11.7380318 38.0469713,7.21575222 C38.0838115,4.53583889 39.7545165,2.7314351 42.5046405,2.19402885 C43.91913,1.91113146 45.3812487,1.9378855 46.7836344,2.27232645 C49.1358838,2.83464558 50.6076514,4.36678726 50.8563231,6.6908024 C50.9760538,7.82255862 50.8765852,8.97566873 50.8765852,10.1750456 Z" id="Path"></path>
                <path d="M146.803535,16.9951894 L150.950174,16.9951894 C150.828377,18.9759865 151.28973,20.9888181 150.438995,22.912665 C149.791256,24.3755718 148.593584,25.2458411 147.041593,25.6605093 C145.379381,26.1101219 143.621378,26.1131989 141.957485,25.6694078 C139.55845,25.0358375 138.071048,23.2472471 138.041522,20.7556784 C137.986159,16.2566173 137.986159,11.7569629 138.041522,7.2567153 C138.076585,4.48573499 139.905387,2.57968495 142.736248,2.14721982 C144.1145,1.91140654 145.528881,1.95931978 146.886578,2.28781548 C149.054936,2.84485905 150.470367,4.14937322 150.79885,6.32059735 C150.983391,7.56638169 150.939101,8.85665833 151,10.1682913 L146.862588,10.1682913 C146.835029,10.0092167 146.816547,9.84880308 146.807225,9.68777445 C146.807225,8.95988046 146.807225,8.23198646 146.807225,7.50409247 C146.775854,5.69236611 145.135283,4.74557001 143.448577,5.56422829 C142.647668,5.95220113 142.426219,6.65517943 142.422528,7.44180326 C142.411456,9.73582613 142.422528,12.029849 142.422528,14.3238719 L142.422528,17.9651215 C142.422528,21.9961237 142.739939,22.6706269 144.637022,22.6635082 C146.502733,22.6635082 146.814607,21.9854456 146.814607,17.997156 L146.803535,16.9951894 Z" id="Path"></path>
                <path d="M213.952706,10.1719055 L209.852142,10.1719055 C209.852142,9.24278424 209.866979,8.34392171 209.852142,7.44683911 C209.824323,6.02289846 209.026836,5.29134896 207.552414,5.32516755 C206.25418,5.35542629 205.464112,6.0460375 205.458549,7.30088519 C205.432584,11.7791785 205.432584,16.2574718 205.458549,20.7357651 C205.458549,22.0012924 206.287563,22.6669846 207.658127,22.6652047 C209.028691,22.6634248 209.807631,21.9941727 209.844723,20.7197458 C209.879961,19.491597 209.844723,18.2616683 209.844723,17.0014808 L213.941578,17.0014808 C213.941578,18.507298 214.086238,19.9935361 213.910049,21.4512953 C213.626293,23.7812182 212.146306,25.2033789 209.76312,25.7444763 C208.213306,26.1007378 206.595811,26.08423 205.054241,25.6964183 C202.606144,25.0859038 201.076083,23.2846189 201.044554,20.7713637 C200.988916,16.2503521 200.981497,11.7257807 201.044554,7.2047692 C201.083501,4.53488049 202.776769,2.7211361 205.543861,2.19071821 C206.945279,1.91430613 208.393037,1.93861846 209.783521,2.26191525 C212.166707,2.82259187 213.604037,4.23407303 213.915613,6.57467546 C214.080674,7.73518708 213.952706,8.936637 213.952706,10.1719055 Z" id="Path"></path>
                <polygon id="Path" points="56.3913638 5.25757926 52 5.25757926 52 2 65 2 65 5.23806218 60.6299535 5.23806218 60.6299535 25 56.3913638 25"></polygon>
                <polygon id="Path" points="224 2 228.113578 2 228.113578 21.7327732 235 21.7327732 235 25 224 25"></polygon>
                <polygon id="Path" points="220 25 216 25 216 2 219.998288 2"></polygon>
                <path d="M94,11.9927854 L94,6.02254878 C94.8220261,6.02254878 95.6309745,5.96274389 96.4287134,6.03792718 C97.4543778,6.133615 97.975617,6.85298239 97.9999042,8.17552479 C98.0023973,8.99283967 97.9562457,9.80967279 97.8616543,10.6223991 C97.7831882,11.3588536 97.03776,11.9346893 96.1522137,11.989368 C95.7598831,12.01329 95.3656842,11.989368 94.9733536,11.989368 L94,11.9927854 Z" id="Path"></path>
                <path d="M82,18 L78,18 C78.6461383,14.3097615 79.2862191,10.6679073 79.9242807,7.02047031 L80.0535083,7 C80.6996466,10.6492979 81.345785,14.3023177 82,18 Z" id="Path"></path>
            </g>
        </g>
    </g>
</svg>